<svg width="123" height="41" viewBox="0 0 123 41" fill="none" xmlns="http://www.w3.org/2000/svg">
<path d="M43.4435 0C41.976 0.00241207 40.5216 0.272138 39.1528 0.795691C38.9286 0.884441 38.7941 1.01756 38.7941 1.23791C38.7941 1.41541 38.9286 1.63575 39.2858 1.63575C39.5548 1.63575 40.4037 1.50416 41.2077 1.50416C47.51 1.50416 50.8622 4.5997 50.8622 11.588C50.8622 17.5557 48.0465 21.1424 43.4404 21.1424C39.5069 21.1424 36.7809 18.4447 36.1099 13.7976C36.065 13.3538 36.0202 12.9116 36.0202 12.5137C36.0231 11.7955 36.1272 11.0812 36.3295 10.3914C36.425 10.1021 36.4999 9.80659 36.5536 9.50695C36.6056 9.24411 36.6356 8.97746 36.6433 8.70974C36.6433 7.5162 36.1068 6.36551 35.5703 5.08323C35.3909 4.68538 35.3028 4.64101 34.9441 4.64101H34.5034C34.3256 4.64101 34.1462 4.68539 33.9236 4.94705C33.3051 5.65551 32.6263 6.58433 32.2691 7.51314C31.912 8.3532 31.8671 9.28202 31.8671 10.2108V11.588C31.8671 18.3559 37.5432 23 43.4435 23C49.3871 23 55.0183 18.3559 55.0183 11.588C55.0287 10.0745 54.7374 8.57394 54.161 7.17207C53.5847 5.77019 52.7346 4.49456 51.6595 3.41821C50.5844 2.34186 49.3053 1.48591 47.8955 0.899372C46.4857 0.312831 44.9728 0.00720852 43.4435 0ZM3.88869 0.442222H0V22.5578H3.88869V0.442222ZM8.26751 0.442222V22.5578H15.4187C23.3754 22.5578 28.7376 18.3116 28.7376 11.5406C28.7376 4.86136 23.3754 0.439158 15.4187 0.439158L8.26751 0.442222ZM62.3937 0.442222H58.505V22.5578H60.4718V4.77719L68.6063 22.6465H69.098L77.2326 4.82157V22.5578H80.9867V0.442222H77.2759L69.7211 17.1211L62.3937 0.442222ZM99.1777 22.5578V20.7002H89.3888V12.2521H98.2392V10.4832H89.3888V2.29985H99.1777V0.442222H85.5001V22.5578H99.1777ZM102.53 0.442222V22.5578H109.681C117.636 22.5578 123 18.3116 123 11.5406C123 4.86136 117.636 0.439158 109.681 0.439158L102.53 0.442222ZM12.1562 20.7002V2.29985H15.4187C21.5865 2.29985 24.5412 6.14823 24.5412 11.5436C24.5412 16.939 21.5911 20.7002 15.4187 20.7002H12.1562ZM106.417 20.7002V2.29985H109.681C115.849 2.29985 118.804 6.14823 118.804 11.5436C118.804 16.939 115.855 20.7002 109.681 20.7002H106.417Z" fill="#0A3F3C"/>
<path fill-rule="evenodd" clip-rule="evenodd" d="M102.716 38.41C102.481 38.2678 102.286 38.0683 102.15 37.8302C102.013 37.5844 101.945 37.3063 101.952 37.0252C101.952 36.992 101.959 36.9593 101.974 36.9296C101.979 36.9182 101.988 36.9085 101.998 36.9014C102.008 36.8944 102.02 36.8902 102.033 36.8895H105.478C105.549 36.8895 105.589 36.8694 105.598 36.8262C105.607 36.7852 105.612 36.7433 105.612 36.7013C105.625 36.2459 105.533 35.7936 105.342 35.3797C105.179 35.0319 104.916 34.7404 104.586 34.5423C104.239 34.345 103.845 34.2459 103.445 34.2555C103.039 34.2513 102.639 34.3579 102.289 34.5639C101.941 34.7716 101.658 35.0723 101.471 35.4321C101.258 35.8471 101.152 36.3089 101.163 36.7753C101.154 37.2167 101.256 37.6531 101.461 38.0445C101.647 38.3981 101.927 38.6936 102.27 38.8989C102.627 39.1078 103.035 39.2145 103.448 39.2073C103.722 39.2111 103.994 39.1748 104.256 39.0994C104.493 39.0289 104.715 38.9143 104.909 38.7616C105.117 38.5944 105.297 38.3957 105.444 38.1725C105.486 38.1191 105.48 38.0774 105.425 38.0476L105.048 37.8579C105.027 37.8473 105.004 37.8425 104.981 37.844C104.958 37.8521 104.938 37.8665 104.923 37.8857C104.772 38.1207 104.565 38.3138 104.32 38.447C104.072 38.5738 103.797 38.6374 103.519 38.6321C103.236 38.6349 102.958 38.558 102.716 38.41ZM104.816 36.3728C104.777 36.3921 104.733 36.3996 104.69 36.3944L101.956 36.3929C101.955 36.1264 102.014 35.8632 102.127 35.6218C102.237 35.3802 102.412 35.1734 102.631 35.0235C102.873 34.8648 103.159 34.785 103.448 34.7952C103.714 34.7866 103.976 34.8587 104.199 35.0019C104.404 35.1371 104.568 35.3245 104.676 35.5447C104.787 35.7701 104.844 36.0183 104.842 36.2695C104.847 36.306 104.838 36.343 104.816 36.3728ZM104.537 32.9431C104.627 32.9215 104.66 32.8675 104.636 32.7889L104.502 32.3771C104.499 32.3663 104.493 32.3562 104.486 32.3478C104.478 32.3393 104.469 32.3327 104.459 32.3284C104.448 32.3241 104.437 32.3222 104.426 32.3229C104.414 32.3236 104.404 32.3269 104.394 32.3324L102.307 33.1683C102.259 33.1868 102.247 33.2284 102.27 33.2947L102.343 33.4921C102.346 33.5061 102.352 33.5193 102.361 33.531C102.369 33.5426 102.38 33.5525 102.392 33.56C102.423 33.5674 102.455 33.5674 102.486 33.56L104.537 32.9431ZM0.780514 32.4395C0.852994 32.4395 0.888465 32.478 0.888465 32.5566V38.9581C0.891533 38.9797 0.889959 39.0018 0.883844 39.0228C0.877728 39.0438 0.867214 39.0633 0.852999 39.0799C0.816006 39.1053 0.771198 39.1168 0.726542 39.1123H0.160578C0.122393 39.1168 0.0838906 39.1069 0.0526265 39.0845C0.0315184 39.0562 0.0221222 39.0209 0.0264033 38.9858V32.5644C0.0264033 32.4811 0.0618745 32.4395 0.134355 32.4395H0.780514ZM2.45312 38.9951V34.4689C2.45312 34.3903 2.4855 34.3517 2.55181 34.3517H3.09156C3.105 34.3496 3.11876 34.3507 3.13169 34.3549C3.14463 34.3591 3.15639 34.3663 3.16601 34.376C3.17563 34.3856 3.18284 34.3974 3.18706 34.4103C3.19127 34.4232 3.19237 34.437 3.19026 34.4504V34.9717V34.9717C3.19026 35.0025 3.19026 35.0195 3.20876 35.0256C3.22727 35.0318 3.24115 35.0256 3.272 34.9994C3.46939 34.8452 3.65444 34.7095 3.82408 34.5985C3.98735 34.4916 4.16422 34.407 4.34995 34.3471C4.53669 34.2893 4.73124 34.2607 4.92671 34.2623C5.38935 34.2623 5.75176 34.3872 6.00621 34.6401C6.13153 34.7695 6.22922 34.9231 6.29338 35.0914C6.35753 35.2597 6.3868 35.4394 6.37941 35.6194V38.9735C6.37941 39.0691 6.33469 39.1185 6.24524 39.1185H5.74096C5.72458 39.12 5.70807 39.1179 5.6926 39.1123C5.67713 39.1067 5.6631 39.0978 5.65152 39.0861C5.63243 39.0621 5.62306 39.0318 5.6253 39.0013V35.7844C5.63989 35.5349 5.55945 35.2891 5.40015 35.0966C5.30588 35.0074 5.19375 34.9394 5.07119 34.8968C4.94863 34.8543 4.81844 34.8383 4.68923 34.8498C4.52198 34.8483 4.35584 34.8771 4.19882 34.9346C4.03563 34.9969 3.88035 35.0782 3.73617 35.1768C3.55532 35.3009 3.38133 35.4348 3.21494 35.5777V38.9704C3.2175 38.9889 3.21575 39.0076 3.20984 39.0253C3.20392 39.0429 3.194 39.0589 3.18085 39.0721C3.16769 39.0852 3.15168 39.0951 3.13405 39.101C3.11641 39.107 3.09765 39.1087 3.07923 39.1061H2.58574C2.49475 39.1123 2.45312 39.0722 2.45312 38.9951ZM9.29096 34.7858C9.55812 34.7789 9.82288 34.8377 10.062 34.957C10.2642 35.0592 10.4371 35.2109 10.5648 35.398C10.5816 35.4194 10.6058 35.4336 10.6326 35.4381C10.6555 35.4413 10.6788 35.437 10.6989 35.4258L11.0768 35.2191C11.087 35.2129 11.0955 35.2044 11.1017 35.1942C11.1079 35.184 11.1115 35.1724 11.1122 35.1605C11.1114 35.1356 11.1021 35.1117 11.086 35.0927C10.9081 34.828 10.6605 34.6177 10.3705 34.4851C10.0519 34.3434 9.70844 34.2661 9.35989 34.2576C9.01133 34.2491 8.66453 34.3097 8.33946 34.4357C8.08083 34.5402 7.85538 34.7129 7.68712 34.9354C7.52912 35.1534 7.4468 35.4172 7.45272 35.6864C7.45541 35.9528 7.55647 36.2087 7.73647 36.405C7.91382 36.6101 8.23613 36.7721 8.6849 36.8908L9.61018 37.1514C9.85709 37.205 10.0899 37.3101 10.2934 37.4599C10.3551 37.5106 10.4048 37.5744 10.4389 37.6467C10.473 37.719 10.4907 37.7979 10.4907 37.8778C10.4943 38.0288 10.439 38.1754 10.3365 38.2865C10.2152 38.4118 10.0631 38.5032 9.89548 38.5517C9.69562 38.6139 9.48789 38.6471 9.27862 38.6504C9.05412 38.6548 8.83048 38.6214 8.61704 38.5517C8.44043 38.4922 8.27628 38.4008 8.13281 38.2818C7.99483 38.1654 7.8748 38.0293 7.77657 37.8778C7.77067 37.8686 7.76273 37.8609 7.75337 37.8553C7.74401 37.8497 7.73348 37.8463 7.7226 37.8454C7.69401 37.8437 7.66569 37.8519 7.64241 37.8685L7.2908 38.0659C7.27843 38.0716 7.26777 38.0804 7.25992 38.0915C7.25206 38.1026 7.24729 38.1156 7.24607 38.1292C7.24764 38.158 7.25726 38.1857 7.27383 38.2094C7.44835 38.5159 7.71187 38.7622 8.02948 38.9157C8.4108 39.1112 8.83478 39.2087 9.2632 39.1994C9.60445 39.2049 9.9436 39.1452 10.2625 39.0236C10.5319 38.9237 10.7702 38.7545 10.9534 38.5332C11.1215 38.3247 11.211 38.0638 11.2063 37.7961C11.2088 37.5221 11.1112 37.2567 10.9318 37.0497C10.6893 36.7996 10.378 36.6273 10.0374 36.5546L8.89463 36.2138C8.6772 36.1612 8.47633 36.0552 8.31016 35.9054C8.22005 35.8084 8.16897 35.6815 8.16674 35.5492C8.16559 35.4363 8.19456 35.3253 8.25068 35.2274C8.3068 35.1295 8.38802 35.0484 8.48596 34.9924C8.72827 34.8462 9.00818 34.7744 9.29096 34.7858ZM13.12 34.9108C13.1102 34.9095 13.1002 34.9105 13.0909 34.9137C13.0815 34.9169 13.073 34.9223 13.066 34.9292C13.059 34.9362 13.0537 34.9448 13.0505 34.9541C13.0473 34.9635 13.0463 34.9735 13.0476 34.9833V37.8332C13.0476 38.1154 13.0954 38.3051 13.191 38.4007C13.2499 38.4519 13.3184 38.491 13.3925 38.5156C13.4666 38.5402 13.5449 38.5499 13.6228 38.5441H14.2396C14.2653 38.5427 14.2906 38.551 14.3106 38.5672C14.3206 38.5769 14.3283 38.5887 14.3331 38.6018C14.3379 38.6149 14.3397 38.6289 14.3383 38.6428L14.3291 38.9512C14.3291 39.0098 14.2936 39.0499 14.2211 39.0669C14.1365 39.082 14.051 39.0913 13.9651 39.0946L13.6413 39.1085H13.376C12.9982 39.1085 12.7221 39.0191 12.5479 38.8433C12.3736 38.6675 12.2873 38.3806 12.2873 38.0013V35.0018C12.289 34.9896 12.2879 34.9771 12.2841 34.9654C12.2802 34.9536 12.2737 34.9429 12.2651 34.9341C12.2564 34.9253 12.2459 34.9186 12.2342 34.9146C12.2225 34.9105 12.2101 34.9092 12.1978 34.9108H11.4838C11.4703 34.9128 11.4565 34.9117 11.4435 34.9075C11.4306 34.9033 11.4187 34.8961 11.409 34.8865C11.3993 34.8769 11.3919 34.8652 11.3875 34.8523C11.3831 34.8394 11.3817 34.8256 11.3836 34.8121V34.4343C11.382 34.422 11.3833 34.4096 11.3874 34.3979C11.3914 34.3862 11.3981 34.3757 11.4069 34.367C11.4157 34.3584 11.4264 34.3519 11.4381 34.348C11.4499 34.3442 11.4623 34.3431 11.4746 34.3448H12.2456C12.2873 34.3448 12.3089 34.3217 12.3089 34.2724L12.4076 32.8428C12.4076 32.7657 12.4477 32.7256 12.5063 32.7256H12.9566C13.029 32.7256 13.0645 32.7688 13.0645 32.852V34.2724C13.0629 34.2822 13.0637 34.2923 13.0668 34.3019C13.0698 34.3114 13.0751 34.32 13.0822 34.3271C13.0893 34.3342 13.0979 34.3395 13.1075 34.3426C13.117 34.3456 13.1271 34.3464 13.137 34.3448H14.2689C14.3352 34.3448 14.3676 34.371 14.3676 34.425V34.8121C14.3697 34.8255 14.3686 34.8393 14.3644 34.8522C14.3602 34.8652 14.353 34.8769 14.3434 34.8866C14.3337 34.8962 14.322 34.9034 14.309 34.9076C14.2961 34.9118 14.2824 34.9129 14.2689 34.9108H13.12ZM15.9683 33.4912C16.0763 33.4912 16.1302 33.4341 16.1302 33.32V32.5736C16.1302 32.4842 16.0886 32.4395 16.0053 32.4395H15.4378C15.3545 32.4395 15.3129 32.4873 15.3129 32.5829V33.3385C15.3103 33.3778 15.3194 33.417 15.3391 33.4511C15.3525 33.4661 15.3693 33.4775 15.3881 33.4845C15.4069 33.4915 15.4272 33.4938 15.4471 33.4912H15.9683ZM16.0624 39.0799C16.0884 39.045 16.1 39.0013 16.0948 38.9581L16.0901 34.4597C16.0901 34.381 16.0577 34.3425 15.9914 34.3425H15.4424C15.37 34.3425 15.3345 34.3841 15.3345 34.4689V38.9858C15.3306 39.0211 15.3406 39.0565 15.3622 39.0845C15.3935 39.1069 15.432 39.1168 15.4702 39.1123H15.9328C15.9786 39.1183 16.0249 39.1067 16.0624 39.0799ZM18.7476 34.9108C18.7378 34.9095 18.7278 34.9105 18.7185 34.9137C18.7091 34.9169 18.7006 34.9223 18.6936 34.9292C18.6866 34.9362 18.6813 34.9448 18.6781 34.9541C18.6749 34.9635 18.6739 34.9735 18.6751 34.9833V37.8332C18.6751 38.1154 18.7245 38.3051 18.8201 38.4007C18.8789 38.4522 18.9474 38.4914 19.0215 38.516C19.0957 38.5406 19.174 38.5502 19.2519 38.5441H19.8688C19.8949 38.543 19.9206 38.5512 19.9412 38.5672C19.9507 38.5772 19.958 38.5892 19.9625 38.6022C19.967 38.6152 19.9687 38.6291 19.9675 38.6428L19.9582 38.9512C19.9582 39.0098 19.9227 39.0499 19.8503 39.0669C19.7657 39.082 19.6801 39.0913 19.5943 39.0946L19.2704 39.1085H19.0052C18.6273 39.1085 18.3513 39.0191 18.1786 38.8433C18.0059 38.6675 17.918 38.3806 17.918 38.0013V35.0018C17.9198 34.9894 17.9187 34.9768 17.9147 34.9649C17.9108 34.9531 17.9042 34.9423 17.8953 34.9334C17.8865 34.9246 17.8757 34.9179 17.8638 34.914C17.852 34.9101 17.8393 34.909 17.827 34.9108H17.1114C17.098 34.9129 17.0842 34.9118 17.0713 34.9076C17.0583 34.9034 17.0466 34.8962 17.037 34.8866C17.0273 34.8769 17.0201 34.8652 17.0159 34.8522C17.0117 34.8393 17.0106 34.8255 17.0127 34.8121V34.4343C17.0109 34.4221 17.0119 34.4097 17.0158 34.398C17.0196 34.3863 17.0262 34.3757 17.0349 34.367C17.0436 34.3583 17.0542 34.3518 17.0659 34.3479C17.0776 34.3441 17.09 34.343 17.1022 34.3448H17.8732C17.9149 34.3448 17.9349 34.3217 17.9349 34.2724L18.0352 32.8428C18.0352 32.7657 18.0737 32.7256 18.1339 32.7256H18.5826C18.6551 32.7256 18.6906 32.7688 18.6906 32.852V34.2724C18.689 34.2822 18.6897 34.2923 18.6928 34.3019C18.6959 34.3114 18.7012 34.32 18.7083 34.3271C18.7154 34.3342 18.724 34.3395 18.7335 34.3426C18.7431 34.3456 18.7532 34.3464 18.763 34.3448H19.8965C19.9613 34.3448 19.9952 34.371 19.9952 34.425V34.8121C19.997 34.8255 19.9957 34.8391 19.9913 34.8519C19.987 34.8647 19.9798 34.8763 19.9702 34.8858C19.9607 34.8954 19.9491 34.9026 19.9363 34.9069C19.9235 34.9112 19.9099 34.9126 19.8965 34.9108H18.7476ZM24.0317 37.8254C23.822 38.0455 23.5846 38.2373 23.3254 38.396C23.102 38.5327 22.8455 38.6057 22.5836 38.6073C22.4577 38.6141 22.3319 38.5934 22.2147 38.5468C22.0976 38.5002 21.9919 38.4288 21.9051 38.3374C21.7339 38.1412 21.645 37.8866 21.6568 37.6265V34.4712C21.6568 34.3864 21.6182 34.3448 21.5411 34.3448H21.0368C20.9474 34.3448 20.9027 34.3926 20.9027 34.4882V37.8223C20.8966 38.0762 20.9618 38.3268 21.0908 38.5456C21.2142 38.7498 21.3913 38.9162 21.6028 39.0267C21.8312 39.1438 22.0849 39.2026 22.3415 39.1979C22.6028 39.1958 22.8609 39.1407 23.1002 39.036C23.4201 38.8857 23.7158 38.6887 23.9777 38.4515C24.007 38.4238 24.024 38.4176 24.0409 38.4238C24.0579 38.4299 24.0579 38.4484 24.0579 38.4777V38.4777V39.0113C24.0559 39.0248 24.057 39.0386 24.0612 39.0516C24.0654 39.0646 24.0726 39.0764 24.0822 39.0861C24.0918 39.0958 24.1035 39.1032 24.1164 39.1076C24.1293 39.112 24.1431 39.1134 24.1566 39.1115H24.6794C24.7442 39.1115 24.7781 39.0714 24.7781 38.9943L24.795 34.4712C24.7976 34.4542 24.7961 34.4368 24.7908 34.4204C24.7854 34.404 24.7764 34.389 24.7642 34.3768C24.7521 34.3645 24.7373 34.3552 24.721 34.3496C24.7046 34.3441 24.6872 34.3424 24.6701 34.3448H24.1751C24.0795 34.3448 24.0317 34.3895 24.0317 34.4789V37.8254ZM27.2543 34.9108C27.2445 34.9095 27.2346 34.9105 27.2253 34.9137C27.216 34.9169 27.2075 34.9222 27.2006 34.9292C27.1937 34.9363 27.1886 34.9448 27.1856 34.9542C27.1826 34.9636 27.1818 34.9736 27.1833 34.9833V37.8332C27.1833 38.1154 27.2311 38.3051 27.3268 38.4007C27.3855 38.4522 27.454 38.4914 27.5282 38.516C27.6023 38.5406 27.6807 38.5502 27.7586 38.5441H28.3754C28.4016 38.5428 28.4273 38.551 28.4479 38.5672C28.4576 38.5771 28.4651 38.5889 28.4696 38.602C28.4741 38.6151 28.4757 38.629 28.4741 38.6428V38.9512C28.4741 39.0098 28.4371 39.0499 28.3662 39.0669C28.2805 39.0821 28.194 39.0913 28.1071 39.0946L27.7832 39.1085H27.518C27.1402 39.1085 26.8657 39.0191 26.6914 38.8433C26.5171 38.6675 26.4308 38.3806 26.4308 38.0013V35.0018C26.4325 34.9896 26.4315 34.9771 26.4276 34.9654C26.4238 34.9536 26.4172 34.9429 26.4086 34.9341C26.3999 34.9253 26.3894 34.9186 26.3777 34.9146C26.366 34.9105 26.3536 34.9092 26.3413 34.9108H25.6212C25.6077 34.9129 25.594 34.9118 25.581 34.9076C25.5681 34.9034 25.5563 34.8962 25.5467 34.8866C25.5371 34.8769 25.5299 34.8652 25.5257 34.8522C25.5214 34.8393 25.5203 34.8255 25.5225 34.8121V34.4343C25.5206 34.4221 25.5217 34.4097 25.5255 34.398C25.5294 34.3863 25.5359 34.3757 25.5446 34.367C25.5533 34.3583 25.5639 34.3518 25.5756 34.3479C25.5873 34.3441 25.5997 34.343 25.6119 34.3448H26.383C26.4246 34.3448 26.4462 34.3217 26.4462 34.2724L26.5449 32.8428C26.5449 32.7657 26.5835 32.7256 26.6436 32.7256H27.0939C27.1648 32.7256 27.2003 32.7688 27.2003 32.852V34.2724C27.1987 34.2822 27.1995 34.2923 27.2026 34.3019C27.2057 34.3114 27.2109 34.32 27.218 34.3271C27.2251 34.3342 27.2338 34.3395 27.2433 34.3426C27.2528 34.3456 27.2629 34.3464 27.2728 34.3448H28.4063C28.4726 34.3448 28.505 34.371 28.505 34.425V34.8121C28.5071 34.8255 28.506 34.8393 28.5018 34.8522C28.4975 34.8652 28.4903 34.8769 28.4807 34.8866C28.4711 34.8962 28.4593 34.9034 28.4464 34.9076C28.4334 34.9118 28.4197 34.9129 28.4063 34.9108H27.2543ZM29.3645 38.0278C29.5431 38.3864 29.8209 38.6861 30.1649 38.8914C30.5288 39.1006 30.9436 39.2047 31.3631 39.1921C31.7816 39.2039 32.1949 39.097 32.5552 38.8837C32.8952 38.673 33.1705 38.3725 33.3509 38.0155C33.5466 37.6215 33.644 37.1861 33.6347 36.7463C33.643 36.2997 33.5457 35.8575 33.3509 35.4555C33.1722 35.0962 32.8973 34.7935 32.5567 34.5811C32.1981 34.3629 31.7844 34.2521 31.3646 34.2619C30.9478 34.2516 30.5364 34.3584 30.1772 34.5703C29.8336 34.7825 29.5555 35.0857 29.3737 35.4463C29.1709 35.8523 29.0703 36.3018 29.0807 36.7556C29.0717 37.1963 29.169 37.6327 29.3645 38.0278ZM32.677 37.7487C32.5772 38.0134 32.4005 38.2421 32.1696 38.4057H32.1743C31.937 38.5628 31.6568 38.6425 31.3724 38.6339C31.0856 38.6412 30.8034 38.5616 30.5627 38.4057C30.326 38.2418 30.143 38.0117 30.0369 37.7441C29.7922 37.087 29.7922 36.3639 30.0369 35.7069C30.1452 35.441 30.3277 35.2118 30.5627 35.0469C30.7992 34.8885 31.0786 34.8067 31.3631 34.8125C31.6479 34.8047 31.9279 34.8868 32.1635 35.0469C32.394 35.2135 32.5721 35.4425 32.677 35.7069C32.9135 36.367 32.9135 37.0886 32.677 37.7487ZM40.3272 39.0799C40.3157 39.0673 40.3068 39.0524 40.3013 39.0362C40.2957 39.0201 40.2935 39.0029 40.2948 38.9858V38.608C40.2948 38.5602 40.2856 38.5325 40.264 38.5278C40.2424 38.5232 40.2146 38.5278 40.1792 38.5726L40.1736 38.5776C40.108 38.6371 40.0214 38.7157 39.8954 38.8147C39.7553 38.9268 39.5994 39.0178 39.4328 39.0845C39.2205 39.1669 38.9942 39.2067 38.7666 39.2017C38.4094 39.2074 38.0576 39.114 37.7503 38.9319C37.4391 38.7386 37.191 38.4589 37.0363 38.1269C36.8468 37.7112 36.756 37.2572 36.771 36.8006C36.7606 36.3414 36.8512 35.8855 37.0363 35.4651C37.1961 35.104 37.4549 34.7956 37.7827 34.5753C38.1063 34.3617 38.4868 34.2504 38.8745 34.2561C39.1279 34.2478 39.3799 34.2968 39.6117 34.3995C39.7991 34.4883 39.9748 34.6002 40.1344 34.7326C40.1884 34.7743 40.2254 34.7912 40.2455 34.782C40.2655 34.7727 40.2779 34.7357 40.2779 34.6694V32.5566C40.2779 32.478 40.3102 32.4395 40.3766 32.4395H40.9256C40.9903 32.4395 41.0243 32.478 41.0243 32.5566V38.9673C41.0284 39.007 41.0186 39.0468 40.9965 39.0799C40.9804 39.0928 40.9618 39.1023 40.942 39.1078C40.9221 39.1134 40.9013 39.1149 40.8808 39.1123H40.4182C40.4016 39.1132 40.3851 39.1108 40.3695 39.1053C40.3538 39.0997 40.3395 39.0911 40.3272 39.0799ZM39.7026 34.9655C39.5028 34.8614 39.2803 34.8085 39.0549 34.8113C38.7714 34.8052 38.4928 34.8866 38.2572 35.0444C38.0216 35.2022 37.8402 35.4288 37.738 35.6934C37.5989 36.0358 37.5328 36.4035 37.5436 36.7729C37.5298 37.1428 37.5972 37.5113 37.741 37.8524C37.8507 38.1074 38.0359 38.3226 38.2715 38.4692C38.4932 38.5973 38.745 38.6638 39.001 38.662C39.2301 38.6666 39.456 38.6074 39.6533 38.4908C39.833 38.3858 39.9864 38.2413 40.1021 38.0683C40.2056 37.9241 40.2636 37.7522 40.2686 37.5748V35.3942C40.1013 35.2251 39.9107 35.0807 39.7026 34.9655ZM43.7005 38.4104C43.4653 38.2683 43.27 38.0688 43.133 37.8306C42.9919 37.5854 42.919 37.3069 42.9218 37.024C42.921 36.9907 42.929 36.9577 42.9449 36.9284C42.9499 36.9169 42.958 36.907 42.9684 36.8999C42.9788 36.8928 42.9909 36.8888 43.0035 36.8883H46.4409C46.5134 36.8883 46.5535 36.8683 46.5628 36.8251C46.5714 36.784 46.5756 36.7421 46.5751 36.7002C46.5878 36.2449 46.496 35.7928 46.3068 35.3786C46.1434 35.0308 45.8804 34.7393 45.5511 34.5412C45.1977 34.3499 44.8017 34.2512 44.3998 34.2545C43.998 34.2577 43.6036 34.3627 43.2533 34.5597C42.9046 34.7669 42.621 35.0677 42.4345 35.4279C42.2244 35.8438 42.1211 36.3054 42.1337 36.7711C42.1245 37.2123 42.2263 37.6487 42.4298 38.0403C42.6173 38.3932 42.8972 38.6885 43.2394 38.8947C43.5965 39.1034 44.0041 39.2101 44.4176 39.2031C44.6913 39.2068 44.9641 39.1704 45.2273 39.0951C45.466 39.0242 45.6894 38.9091 45.8858 38.7559C46.0938 38.5887 46.2744 38.3899 46.4209 38.1668C46.462 38.1133 46.4558 38.0717 46.4024 38.0418L46.0246 37.8522C46.0036 37.8415 45.9802 37.8367 45.9567 37.8383C45.9338 37.8467 45.9136 37.8611 45.8981 37.8799C45.7479 38.1145 45.541 38.3075 45.2967 38.4413C45.0491 38.5676 44.7742 38.6311 44.4963 38.6263C44.2161 38.63 43.9405 38.5552 43.7005 38.4104ZM45.7994 36.3732C45.7608 36.3926 45.7174 36.4001 45.6745 36.3948L42.9403 36.3933C42.94 36.1268 42.9985 35.8636 43.1115 35.6222C43.221 35.3804 43.3949 35.1734 43.6142 35.0239C43.8572 34.8654 44.1431 34.7857 44.4331 34.7956C44.6985 34.7872 44.9603 34.8592 45.1841 35.0023C45.3885 35.1375 45.553 35.3249 45.6606 35.5451C45.7717 35.7705 45.8287 36.0187 45.8272 36.2699C45.8272 36.3239 45.8179 36.3578 45.7994 36.3732ZM50.2143 32.4395H54.2516C54.3117 32.4395 54.3426 32.4718 54.3426 32.5381V33.0008C54.3426 33.0733 54.3025 33.1087 54.2254 33.1087H51.0871C51.0085 33.1087 50.9699 33.1458 50.9699 33.2167V35.3171C50.9678 35.3305 50.9689 35.3443 50.9731 35.3572C50.9773 35.3702 50.9845 35.3819 50.9942 35.3915C51.0038 35.4012 51.0155 35.4084 51.0285 35.4126C51.0414 35.4168 51.0552 35.4179 51.0686 35.4158H53.4003C53.4138 35.4137 53.4276 35.4149 53.4406 35.4191C53.4536 35.4233 53.4654 35.4305 53.4751 35.4401C53.4848 35.4496 53.4922 35.4614 53.4966 35.4743C53.501 35.4872 53.5024 35.501 53.5006 35.5145V35.991C53.5015 36.0121 53.495 36.0329 53.4821 36.0496C53.4697 36.065 53.4435 36.0727 53.4003 36.0727H51.0717C51.0583 36.0706 51.0445 36.0717 51.0316 36.0759C51.0186 36.0802 51.0069 36.0874 50.9972 36.097C50.9876 36.1066 50.9804 36.1184 50.9762 36.1313C50.972 36.1442 50.9709 36.158 50.973 36.1714V38.3567C50.9712 38.3688 50.9722 38.3812 50.9761 38.3929C50.9799 38.4046 50.9865 38.4152 50.9952 38.4239C51.0039 38.4326 51.0145 38.4392 51.0262 38.443C51.0378 38.4469 51.0503 38.4479 51.0624 38.4461H54.3626C54.4289 38.4461 54.4629 38.4769 54.4629 38.5355V39.0121C54.4642 39.0382 54.456 39.064 54.4397 39.0845C54.4298 39.0947 54.4177 39.1025 54.4043 39.1073C54.391 39.1121 54.3767 39.1138 54.3626 39.1123H50.2328C50.2156 39.1146 50.1982 39.1129 50.1818 39.1073C50.1654 39.1018 50.1505 39.0925 50.1383 39.0803C50.1261 39.0681 50.1168 39.0532 50.1113 39.0368C50.1057 39.0204 50.104 39.003 50.1063 38.9858V32.5644C50.1063 32.4811 50.1433 32.4395 50.2143 32.4395ZM58.6897 39.0362C58.6953 39.0524 58.7041 39.0673 58.7157 39.0799C58.7279 39.0911 58.7423 39.0997 58.7579 39.1053C58.7735 39.1108 58.7901 39.1132 58.8067 39.1123H59.2693C59.29 39.1151 59.3111 39.1137 59.3312 39.1081C59.3514 39.1026 59.3702 39.093 59.3865 39.0799C59.4079 39.0465 59.4172 39.0068 59.4127 38.9673V32.5566C59.4127 32.478 59.3803 32.4395 59.314 32.4395H58.7666C58.7003 32.4395 58.6663 32.478 58.6663 32.5566V34.6694C58.6663 34.7357 58.6571 34.7727 58.6355 34.782C58.6139 34.7912 58.5769 34.7743 58.5229 34.7326C58.3638 34.6002 58.1887 34.4882 58.0017 34.3995C57.7698 34.2972 57.5179 34.2482 57.2645 34.2561C56.8763 34.2502 56.4953 34.3615 56.1711 34.5753C55.8438 34.796 55.5851 35.1044 55.4248 35.4651C55.2403 35.8857 55.1498 36.3415 55.1595 36.8006C55.1452 37.2572 55.236 37.7109 55.4248 38.1269C55.58 38.459 55.8287 38.7387 56.1403 38.9319C56.4475 39.1142 56.7994 39.2076 57.1566 39.2017C57.3837 39.2068 57.6096 39.167 57.8212 39.0845C57.988 39.018 58.1439 38.927 58.2839 38.8147C58.4119 38.7129 58.5013 38.6327 58.5661 38.5725C58.6031 38.5278 58.6324 38.5232 58.6525 38.5278C58.6725 38.5325 58.6833 38.5602 58.6833 38.608V38.9858C58.682 39.0029 58.6842 39.0201 58.6897 39.0362ZM57.4419 34.8113C57.6672 34.8081 57.8898 34.8611 58.0896 34.9655C58.2985 35.0802 58.4896 35.2246 58.6571 35.3942V37.5624C58.6521 37.7399 58.5941 37.9118 58.4905 38.0559C58.3747 38.2293 58.2206 38.3739 58.0402 38.4785C57.846 38.5982 57.6223 38.6618 57.3941 38.662C57.1386 38.6639 56.8872 38.5973 56.6662 38.4692C56.4301 38.3231 56.2448 38.1077 56.1357 37.8524C55.9919 37.5113 55.9245 37.1428 55.9383 36.7729C55.9277 36.4036 55.9933 36.0361 56.1311 35.6934C56.2399 35.4233 56.4281 35.1926 56.6708 35.0318C56.9014 34.8859 57.169 34.8093 57.4419 34.8113ZM63.1646 38.396C63.4239 38.2373 63.6613 38.0455 63.8709 37.8254V34.4789C63.8709 34.3895 63.9187 34.3448 64.0144 34.3448H64.5094C64.5265 34.3424 64.5439 34.3441 64.5602 34.3496C64.5765 34.3552 64.5914 34.3645 64.6035 34.3768C64.6156 34.389 64.6247 34.404 64.6301 34.4204C64.6354 34.4368 64.6369 34.4542 64.6343 34.4712L64.6173 38.9943C64.6173 39.0714 64.5834 39.1115 64.5186 39.1115H63.9958C63.9823 39.1134 63.9686 39.112 63.9556 39.1076C63.9427 39.1032 63.931 39.0958 63.9214 39.0861C63.9119 39.0764 63.9047 39.0646 63.9005 39.0516C63.8963 39.0386 63.8951 39.0248 63.8972 39.0113V38.4777C63.8972 38.4484 63.8972 38.4299 63.8802 38.4238C63.8632 38.4176 63.8463 38.4237 63.817 38.4515C63.5551 38.6887 63.2593 38.8857 62.9395 39.036C62.6996 39.1409 62.441 39.196 62.1792 39.1979C61.9232 39.2024 61.6699 39.1436 61.4421 39.0267C61.2306 38.9162 61.0535 38.7498 60.9301 38.5456C60.8005 38.3269 60.7348 38.0764 60.7404 37.8223V34.4882C60.7404 34.3926 60.7867 34.3448 60.8761 34.3448H61.3804C61.4575 34.3448 61.496 34.3864 61.496 34.4712V37.6265C61.4842 37.8866 61.5732 38.1412 61.7443 38.3374C61.8312 38.4288 61.9368 38.5002 62.054 38.5468C62.1711 38.5934 62.297 38.6141 62.4229 38.6073C62.6848 38.6057 62.9413 38.5327 63.1646 38.396ZM69.4351 34.8082C69.2581 34.6342 69.0485 34.4969 68.8182 34.4041H68.8213C68.4982 34.2825 68.152 34.2348 67.808 34.2644C67.4641 34.294 67.1311 34.4002 66.8335 34.5753C66.4933 34.7906 66.2169 35.093 66.0331 35.4512C65.8427 35.8541 65.744 36.2941 65.744 36.7397C65.744 37.1853 65.8427 37.6253 66.0331 38.0282C66.2135 38.384 66.4889 38.6829 66.8289 38.8918C67.104 39.0485 67.4078 39.1484 67.7222 39.1855C68.0367 39.2225 68.3554 39.1961 68.6594 39.1077C68.8492 39.048 69.0294 38.9612 69.1945 38.8501C69.3506 38.7447 69.4913 38.618 69.6124 38.4738C69.7279 38.3328 69.8311 38.1821 69.9209 38.0235C69.9394 37.9634 69.927 37.9248 69.8854 37.9063L69.4983 37.7629C69.4774 37.7521 69.4539 37.7473 69.4305 37.749C69.4166 37.7521 69.3996 37.7691 69.3811 37.7984C69.2347 38.0454 69.0389 38.2596 68.8059 38.4276C68.5855 38.5752 68.3247 38.6507 68.0595 38.6435C67.772 38.6505 67.4889 38.5727 67.2453 38.4199C67.0059 38.2578 66.8188 38.0295 66.7071 37.7629C66.4511 37.1005 66.4511 36.3665 66.7071 35.7042C66.8161 35.4356 67.0023 35.2054 67.2422 35.0426C67.4814 34.8869 67.7619 34.8069 68.0472 34.8128C68.195 34.8115 68.3415 34.8409 68.4774 34.8992C68.6152 34.9592 68.7415 35.0427 68.8506 35.1459C68.9845 35.2732 69.104 35.4149 69.2069 35.5684C69.2423 35.6224 69.2809 35.6409 69.3241 35.6224L69.8175 35.5052C69.8839 35.4882 69.8993 35.442 69.8623 35.371C69.747 35.1643 69.6032 34.9748 69.4351 34.8082ZM72.906 39.0306C72.6291 39.1481 72.3308 39.2064 72.0301 39.2018C71.6304 39.2248 71.2368 39.0965 70.9274 38.8425C70.7957 38.7238 70.6916 38.5776 70.6226 38.4142C70.5536 38.2509 70.5213 38.0743 70.528 37.8971C70.5207 37.6003 70.6161 37.31 70.7979 37.0752C71.0089 36.8218 71.2859 36.6318 71.5983 36.5262C72.0177 36.3786 72.457 36.2954 72.9014 36.2794L73.6031 36.2255C73.638 36.2196 73.6716 36.2071 73.7018 36.1884C73.7176 36.1777 73.7302 36.1629 73.7381 36.1454C73.746 36.128 73.7489 36.1087 73.7465 36.0897V35.8476C73.7527 35.7046 73.7285 35.5618 73.6753 35.4289C73.6221 35.2959 73.5412 35.1758 73.438 35.0766C73.2138 34.8798 72.9216 34.7785 72.6238 34.7943C72.3742 34.7903 72.128 34.852 71.9098 34.9732C71.6812 35.1082 71.4857 35.2926 71.3376 35.513C71.3219 35.536 71.302 35.5558 71.279 35.5716C71.2671 35.5768 71.2543 35.5795 71.2413 35.5795C71.2282 35.5795 71.2154 35.5768 71.2035 35.5716L70.7177 35.4174C70.7005 35.4064 70.6866 35.3909 70.6776 35.3726C70.6684 35.3541 70.6776 35.3217 70.6992 35.2739C70.879 34.9622 71.1423 34.7069 71.4595 34.5368C71.8305 34.3462 72.2439 34.2533 72.6608 34.2669C73.0042 34.2561 73.3459 34.3187 73.6632 34.4504C73.9142 34.5601 74.1245 34.7456 74.2646 34.9809C74.4054 35.2321 74.4757 35.5166 74.4682 35.8044V38.9874C74.4727 39.0256 74.4628 39.0641 74.4404 39.0954C74.4281 39.1057 74.4138 39.1134 74.3985 39.1182C74.3831 39.123 74.367 39.1246 74.351 39.1231H73.8883C73.8711 39.1247 73.8537 39.1216 73.838 39.1143C73.8223 39.107 73.8089 39.0957 73.7989 39.0815C73.7793 39.0502 73.7672 39.0149 73.7634 38.9782L73.7542 38.5649C73.7357 38.4816 73.6909 38.4754 73.62 38.5464C73.4126 38.7488 73.1708 38.9128 72.906 39.0306ZM73.6216 36.6835L73.0278 36.7374C72.7792 36.7456 72.532 36.7803 72.2907 36.8408C72.0983 36.8884 71.9135 36.9626 71.7417 37.0613C71.6041 37.1394 71.4869 37.2488 71.3993 37.3805C71.3208 37.5089 71.2806 37.6572 71.2837 37.8077C71.2774 37.9247 71.2989 38.0416 71.3463 38.1488C71.3937 38.256 71.4658 38.3505 71.5566 38.4246C71.7708 38.5819 72.0331 38.6598 72.2984 38.6451C72.4878 38.6459 72.6757 38.6108 72.852 38.5417C73.0196 38.479 73.1759 38.3894 73.3147 38.2765C73.4396 38.1782 73.5475 38.0599 73.6339 37.9264C73.7042 37.8224 73.7432 37.7004 73.7465 37.5748V36.8284C73.7465 36.7256 73.7048 36.6773 73.6216 36.6835ZM79.2324 34.8082C79.0554 34.6342 78.8457 34.4969 78.6155 34.4041H78.6201C78.297 34.2825 77.9508 34.2348 77.6068 34.2644C77.2629 34.294 76.9299 34.4002 76.6323 34.5753C76.2914 34.7897 76.0148 35.0924 75.8319 35.4512C75.6415 35.8541 75.5428 36.2941 75.5428 36.7397C75.5428 37.1853 75.6415 37.6253 75.8319 38.0282C76.0123 38.384 76.2878 38.683 76.6277 38.8918C76.9028 39.0485 77.2066 39.1484 77.5211 39.1855L77.5401 39.1876L77.2661 39.8217C77.2661 39.8286 77.2649 39.8346 77.2637 39.8399C77.2618 39.8489 77.2603 39.856 77.2661 39.8618C77.2834 39.8732 77.3042 39.8781 77.3247 39.8757C77.5152 39.8684 77.7046 39.9054 77.8784 39.9836C77.9339 40.013 77.9798 40.0577 78.0107 40.1123C78.0415 40.167 78.0561 40.2294 78.0526 40.292C78.0556 40.3419 78.0457 40.3916 78.0238 40.4364C78.0019 40.4813 77.9688 40.5197 77.9277 40.548C77.8098 40.6136 77.6753 40.6436 77.5406 40.6344C77.4322 40.637 77.324 40.6203 77.2214 40.585C77.1377 40.5529 77.0576 40.512 76.9824 40.4632C76.9762 40.4583 76.969 40.4548 76.9613 40.453C76.9536 40.4513 76.9455 40.4513 76.9378 40.453C76.9301 40.4548 76.9229 40.4583 76.9167 40.4633C76.9105 40.4683 76.9056 40.4746 76.9022 40.4817L76.8035 40.7146C76.7912 40.7454 76.8035 40.7717 76.839 40.7963C76.9538 40.8651 77.0779 40.917 77.2075 40.9505C77.3459 40.9839 77.4878 41.0004 77.6301 40.9999C77.7974 41.0024 77.9638 40.9737 78.1205 40.9151C78.2563 40.8652 78.378 40.7832 78.4752 40.676C78.5726 40.5654 78.6225 40.4207 78.614 40.2735C78.6136 40.171 78.5904 40.0699 78.5461 39.9774C78.4943 39.8742 78.4133 39.7884 78.3133 39.7307C78.1715 39.6525 78.0125 39.6106 77.8506 39.6089C77.8152 39.6089 77.8028 39.5934 77.8151 39.5641L77.9633 39.196C78.1305 39.1842 78.2964 39.1547 78.4582 39.1077C78.648 39.048 78.8283 38.9612 78.9933 38.8501C79.1494 38.7447 79.2901 38.618 79.4113 38.4738C79.5267 38.3328 79.6299 38.1821 79.7197 38.0235C79.7382 37.9634 79.7259 37.9248 79.6842 37.9063L79.2971 37.7629C79.2762 37.7521 79.2528 37.7473 79.2293 37.749C79.2154 37.7521 79.1985 37.7691 79.1799 37.7984C79.0331 38.0451 78.8373 38.2592 78.6047 38.4276C78.3843 38.5752 78.1235 38.6507 77.8583 38.6435C77.5708 38.6505 77.2877 38.5727 77.0441 38.4199C76.8046 38.2574 76.6172 38.0293 76.5043 37.7629C76.2494 37.1003 76.2494 36.3667 76.5043 35.7042C76.6133 35.436 76.7989 35.2059 77.0379 35.0426C77.2773 34.8873 77.5576 34.8072 77.8429 34.8128C77.9912 34.8116 78.1382 34.841 78.2747 34.8992C78.4125 34.9592 78.5387 35.0427 78.6479 35.1459C78.7818 35.2732 78.9013 35.4149 79.0041 35.5684C79.0396 35.6224 79.0782 35.6409 79.1198 35.6224L79.6148 35.5052C79.6811 35.4883 79.6966 35.442 79.6596 35.371C79.5437 35.1647 79.4 34.9752 79.2324 34.8082ZM82.7068 39.0304C82.4293 39.1478 82.1305 39.2061 81.8293 39.2016C81.4301 39.2244 81.037 39.0961 80.7282 38.8423C80.5964 38.7236 80.4924 38.5774 80.4233 38.414C80.3543 38.2507 80.322 38.0741 80.3288 37.8969C80.3215 37.6001 80.4168 37.3098 80.5986 37.075C80.8093 36.822 81.0858 36.632 81.3975 36.526C81.8175 36.3785 82.2573 36.2953 82.7021 36.2792L83.4038 36.2253C83.4388 36.2195 83.4723 36.2069 83.5025 36.1882C83.5182 36.1774 83.5307 36.1625 83.5386 36.1451C83.5465 36.1277 83.5495 36.1085 83.5472 36.0895V35.8474C83.5535 35.7044 83.5292 35.5616 83.4761 35.4287C83.4229 35.2957 83.342 35.1756 83.2388 35.0764C83.0146 34.8796 82.7224 34.7783 82.4245 34.7941C82.1749 34.7899 81.9286 34.8516 81.7105 34.973C81.4816 35.1076 81.2861 35.2921 81.1384 35.5128C81.1226 35.5358 81.1028 35.5556 81.0798 35.5714C81.0679 35.5766 81.055 35.5793 81.042 35.5793C81.029 35.5793 81.0161 35.5766 81.0042 35.5714L80.5184 35.4172C80.5009 35.4066 80.4869 35.3911 80.4783 35.3724C80.4691 35.3539 80.4784 35.3216 80.4999 35.2737C80.6798 34.962 80.9431 34.7067 81.2602 34.5366C81.6307 34.3461 82.0436 34.2532 82.46 34.2667C82.8039 34.2558 83.1462 34.3184 83.4639 34.4503C83.7149 34.5599 83.9252 34.7454 84.0654 34.9807C84.2057 35.232 84.2755 35.5166 84.2674 35.8042V38.9872C84.2724 39.0252 84.263 39.0637 84.2412 39.0952C84.2288 39.1055 84.2146 39.1132 84.1992 39.118C84.1839 39.1228 84.1678 39.1244 84.1517 39.1229H83.6891C83.6719 39.1245 83.6545 39.1214 83.6388 39.1141C83.6231 39.1068 83.6096 39.0955 83.5996 39.0813C83.5794 39.0503 83.5672 39.0148 83.5642 38.978L83.5549 38.5647C83.5364 38.4814 83.4917 38.4752 83.4192 38.5462C83.2123 38.7486 82.9711 38.9125 82.7068 39.0304ZM83.4223 36.6833L82.8286 36.7373C82.5799 36.7453 82.3328 36.78 82.0914 36.8406C81.8991 36.8882 81.7143 36.9624 81.5424 37.0611C81.4049 37.1392 81.2876 37.2486 81.2001 37.3803C81.121 37.5086 81.0803 37.6568 81.0829 37.8075C81.0769 37.9247 81.0987 38.0416 81.1464 38.1487C81.1941 38.2559 81.2664 38.3503 81.3574 38.4244C81.5716 38.5817 81.8338 38.6596 82.0991 38.6449C82.2886 38.6457 82.4764 38.6106 82.6528 38.5415C82.8204 38.4788 82.9766 38.3892 83.1154 38.2763C83.2404 38.178 83.3482 38.0597 83.4346 37.9262C83.5049 37.8222 83.544 37.7002 83.5472 37.5746V36.8282C83.5472 36.7254 83.5056 36.6771 83.4223 36.6833ZM83.4439 33.1533C83.3102 33.2022 83.1683 33.2253 83.026 33.2212C82.8845 33.223 82.7436 33.2033 82.6081 33.1626C82.4847 33.124 82.3675 33.0855 82.2564 33.0454C82.1362 33.005 82.0101 32.9852 81.8832 32.9868C81.7768 32.982 81.6708 33.0037 81.5748 33.05C81.5259 33.0785 81.4743 33.1064 81.4231 33.134L81.423 33.1341C81.3967 33.1482 81.3706 33.1623 81.345 33.1764C81.3232 33.1924 81.2964 33.2 81.2695 33.198C81.2479 33.198 81.2325 33.1734 81.2201 33.1317L81.1307 32.8973C81.1258 32.8724 81.1227 32.8471 81.1214 32.8217C81.1214 32.8063 81.1353 32.7863 81.1662 32.7631C81.2596 32.6921 81.3586 32.6286 81.4622 32.5735C81.5828 32.5157 81.7157 32.4882 81.8493 32.4933C81.9908 32.4915 82.1317 32.5113 82.2672 32.5519C82.3968 32.5904 82.5232 32.6321 82.6497 32.6768C82.7739 32.7215 82.9048 32.7444 83.0368 32.7446C83.1337 32.7478 83.2301 32.7294 83.319 32.6907C83.3983 32.6536 83.475 32.6113 83.5488 32.5642C83.576 32.5489 83.607 32.5414 83.6382 32.5426C83.6629 32.5426 83.6814 32.5673 83.6922 32.6105L83.7832 32.8881C83.7955 32.9312 83.7708 32.976 83.7107 33.0238C83.6257 33.0746 83.5364 33.1179 83.4439 33.1533ZM85.6181 38.0279C85.7977 38.3858 86.0753 38.6853 86.4185 38.8915C86.7798 39.1025 87.1923 39.2097 87.6106 39.2014C88.0286 39.2132 88.4414 39.1062 88.8011 38.893C89.1411 38.6823 89.4165 38.3818 89.5969 38.0248C89.7954 37.6306 89.8944 37.1938 89.8853 36.7525C89.8943 36.3059 89.797 35.8634 89.6015 35.4618C89.425 35.1003 89.151 34.7953 88.8104 34.5812C88.4523 34.3629 88.0391 34.2521 87.6199 34.262C87.2029 34.2512 86.7914 34.3581 86.4324 34.5704C86.088 34.782 85.8093 35.0853 85.6274 35.4463C85.4253 35.8527 85.3248 36.3019 85.3344 36.7556C85.326 37.1963 85.4233 37.6325 85.6181 38.0279ZM88.9322 37.7487C88.8313 38.0132 88.6542 38.2419 88.4233 38.4057H88.4279C88.1924 38.5614 87.9144 38.6406 87.6322 38.6324C87.3429 38.6423 87.0576 38.5632 86.8148 38.4057C86.5777 38.242 86.3942 38.0118 86.2874 37.7441C86.0428 37.0871 86.0428 36.364 86.2874 35.707C86.3963 35.4409 86.5794 35.2118 86.8148 35.0469C87.051 34.888 87.3306 34.8061 87.6152 34.8125C87.9 34.8048 88.18 34.8868 88.4156 35.0469C88.6452 35.2142 88.8227 35.443 88.9276 35.707C89.0551 36.0319 89.1164 36.3789 89.108 36.7279C89.1166 37.0764 89.0569 37.4232 88.9322 37.7487ZM93.4668 38.977V32.5648C93.4668 32.4815 93.5023 32.4398 93.5748 32.4398H94.4384C94.4736 32.4378 94.5089 32.4436 94.5417 32.4568C94.5672 32.4774 94.5846 32.5064 94.591 32.5385L96.5866 37.6908C96.6112 37.7448 96.6344 37.771 96.659 37.7679C96.6837 37.7649 96.7068 37.7356 96.7315 37.6816L98.7271 32.557C98.7517 32.4784 98.7965 32.4398 98.8628 32.4398H99.7695C99.8358 32.4398 99.8698 32.4784 99.8698 32.557V38.977C99.8723 38.9954 99.8706 39.0142 99.8647 39.0318C99.8588 39.0494 99.8489 39.0655 99.8357 39.0786C99.8226 39.0918 99.8065 39.1017 99.7889 39.1076C99.7713 39.1135 99.7525 39.1152 99.7341 39.1127H99.1404C99.1037 39.1161 99.067 39.1062 99.037 39.0849C99.0259 39.073 99.0174 39.0589 99.012 39.0435C99.0067 39.0281 99.0047 39.0117 99.0062 38.9955V33.8524V33.8524C99.0062 33.8231 99.0062 33.8093 98.9877 33.8123C98.9692 33.8154 98.9661 33.8293 98.9615 33.8524L96.9829 38.997C96.9711 39.0326 96.948 39.0633 96.9171 39.0845C96.8862 39.1057 96.8491 39.1161 96.8117 39.1142H96.3799C96.342 39.1194 96.3035 39.1116 96.2707 39.0919C96.2379 39.0723 96.2128 39.0421 96.1995 39.0063L94.2487 33.9064C94.2363 33.8771 94.2271 33.8632 94.2178 33.8663C94.2086 33.8694 94.2039 33.8833 94.2039 33.9064V38.9955C94.2055 39.0115 94.2038 39.0276 94.199 39.043C94.1943 39.0583 94.1865 39.0726 94.1762 39.0849C94.1483 39.1069 94.1128 39.1169 94.0775 39.1127H93.5917C93.5084 39.1127 93.4668 39.0664 93.4668 38.977ZM109.952 39.0799C109.93 39.0539 109.919 39.02 109.921 38.9858V38.608C109.921 38.5602 109.911 38.5325 109.889 38.5278C109.867 38.5232 109.84 38.5278 109.804 38.5725L109.799 38.5777C109.733 38.6372 109.646 38.7157 109.521 38.8147C109.381 38.9272 109.225 39.0181 109.058 39.0845C108.846 39.167 108.619 39.2068 108.392 39.2017C108.035 39.2074 107.684 39.114 107.377 38.9319C107.065 38.7387 106.817 38.459 106.661 38.1269C106.472 37.7111 106.381 37.2572 106.396 36.8006C106.386 36.3414 106.476 35.8855 106.661 35.4651C106.822 35.1044 107.08 34.796 107.408 34.5753C107.731 34.3617 108.112 34.2504 108.5 34.2561C108.753 34.248 109.006 34.297 109.238 34.3995C109.425 34.4882 109.6 34.6002 109.76 34.7326C109.814 34.7743 109.851 34.7912 109.872 34.782C109.894 34.7727 109.903 34.7357 109.903 34.6694V32.5566C109.903 32.478 109.935 32.4395 110.002 32.4395H110.551C110.617 32.4395 110.649 32.478 110.649 32.5566V38.9673C110.653 39.0067 110.644 39.0462 110.623 39.0799C110.607 39.093 110.588 39.1026 110.568 39.1081C110.548 39.1137 110.527 39.1151 110.506 39.1123H110.043C110.01 39.114 109.977 39.1023 109.952 39.0799ZM109.335 34.9655C109.136 34.8613 108.913 34.8083 108.688 34.8113C108.404 34.8063 108.126 34.8881 107.891 35.0458C107.656 35.2035 107.474 35.4295 107.371 35.6934C107.232 36.0358 107.166 36.4034 107.176 36.7729C107.162 37.143 107.23 37.5116 107.375 37.8524C107.484 38.108 107.669 38.3235 107.906 38.4692C108.127 38.5973 108.378 38.6639 108.634 38.662C108.863 38.6666 109.089 38.6074 109.286 38.4908C109.466 38.3858 109.619 38.2413 109.735 38.0683C109.838 37.9241 109.896 37.7522 109.901 37.5748V35.3942C109.732 35.2241 109.539 35.0797 109.328 34.9655H109.335ZM112.675 33.4912C112.783 33.4912 112.837 33.4341 112.837 33.32L112.839 32.5736C112.839 32.4842 112.797 32.4395 112.712 32.4395H112.146C112.063 32.4395 112.02 32.4873 112.02 32.5829V33.3385C112.018 33.378 112.027 33.4172 112.048 33.4511C112.061 33.4661 112.078 33.4775 112.097 33.4845C112.115 33.4915 112.136 33.4938 112.156 33.4912H112.675ZM112.769 39.0799C112.795 39.045 112.807 39.0013 112.802 38.9581L112.799 34.4597C112.799 34.381 112.765 34.3425 112.7 34.3425H112.151C112.078 34.3425 112.043 34.3841 112.043 34.4689V38.9858C112.039 39.0208 112.049 39.0559 112.069 39.0845C112.1 39.1069 112.139 39.1168 112.177 39.1123H112.64C112.685 39.1183 112.732 39.1067 112.769 39.0799ZM116.996 34.4041C117.226 34.497 117.436 34.6343 117.613 34.8082C117.78 34.9753 117.923 35.1647 118.038 35.3711C118.075 35.442 118.06 35.4883 117.994 35.5052L117.5 35.6224C117.457 35.6409 117.418 35.6224 117.383 35.5685C117.28 35.4149 117.161 35.2732 117.027 35.1459C116.918 35.043 116.792 34.9596 116.655 34.8992C116.519 34.841 116.371 34.8116 116.223 34.8128C115.938 34.8069 115.657 34.8869 115.418 35.0426C115.178 35.2054 114.992 35.4356 114.883 35.7042C114.627 36.3666 114.627 37.1005 114.883 37.7629C114.995 38.0299 115.183 38.2583 115.423 38.4199C115.666 38.5728 115.948 38.6506 116.235 38.6435C116.501 38.6507 116.762 38.5752 116.982 38.4276C117.215 38.2596 117.411 38.0455 117.557 37.7984C117.576 37.7691 117.593 37.7521 117.608 37.749C117.631 37.7475 117.654 37.7523 117.674 37.7629L118.061 37.9063C118.103 37.9248 118.115 37.9634 118.097 38.0235C118.007 38.1821 117.904 38.3328 117.788 38.4738C117.667 38.618 117.527 38.7447 117.371 38.8501C117.205 38.9612 117.025 39.048 116.835 39.1077C116.531 39.1961 116.213 39.2226 115.898 39.1855C115.584 39.1484 115.28 39.0485 115.005 38.8918C114.665 38.683 114.389 38.384 114.209 38.0282C114.019 37.6253 113.92 37.1853 113.92 36.7397C113.92 36.2941 114.019 35.8541 114.209 35.4512C114.393 35.093 114.669 34.7906 115.009 34.5753C115.307 34.4002 115.64 34.294 115.984 34.2644C116.328 34.2348 116.674 34.2825 116.997 34.4041H116.996ZM120.212 39.2018C120.513 39.2064 120.811 39.1481 121.088 39.0306C121.355 38.9136 121.6 38.7496 121.81 38.5464C121.88 38.4754 121.925 38.4816 121.944 38.5649L121.953 38.9782C121.957 39.0147 121.969 39.0499 121.988 39.0815C121.998 39.0957 122.012 39.107 122.028 39.1143C122.043 39.1216 122.061 39.1247 122.078 39.1231H122.541C122.557 39.1248 122.573 39.1232 122.588 39.1185C122.603 39.1137 122.618 39.1058 122.63 39.0954C122.652 39.0641 122.662 39.0256 122.658 38.9874V35.8044C122.665 35.5166 122.595 35.2321 122.454 34.9809C122.314 34.7456 122.104 34.5601 121.853 34.4504C121.535 34.3187 121.194 34.2561 120.85 34.2669C120.433 34.2533 120.02 34.3462 119.649 34.5368C119.332 34.7069 119.069 34.9622 118.889 35.2739C118.867 35.3218 118.858 35.3541 118.867 35.3726C118.876 35.391 118.89 35.4064 118.907 35.4174L119.393 35.5716C119.405 35.5769 119.418 35.5796 119.432 35.5796C119.445 35.5796 119.458 35.5769 119.47 35.5716C119.492 35.5552 119.511 35.5355 119.527 35.513C119.675 35.2927 119.871 35.1082 120.099 34.9732C120.318 34.852 120.564 34.7903 120.813 34.7943C121.111 34.7785 121.403 34.8798 121.628 35.0766C121.729 35.1765 121.809 35.2969 121.861 35.4298C121.913 35.5627 121.936 35.7051 121.928 35.8476V36.0897C121.931 36.1087 121.928 36.128 121.92 36.1454C121.912 36.1629 121.899 36.1777 121.884 36.1884C121.853 36.2071 121.82 36.2197 121.785 36.2255L121.083 36.2794C120.639 36.2954 120.2 36.3786 119.78 36.5262C119.468 36.6318 119.191 36.8218 118.98 37.0752C118.798 37.31 118.703 37.6003 118.71 37.8971C118.703 38.0743 118.735 38.2509 118.804 38.4142C118.873 38.5776 118.978 38.7238 119.109 38.8425C119.419 39.0965 119.812 39.2248 120.212 39.2018ZM121.21 36.7375L121.803 36.6835C121.887 36.6773 121.928 36.7256 121.928 36.8284V37.5748C121.925 37.7004 121.886 37.8224 121.816 37.9264C121.729 38.0599 121.621 38.1782 121.496 38.2765C121.358 38.3894 121.201 38.479 121.034 38.5418C120.858 38.6107 120.671 38.6457 120.482 38.6451C120.216 38.6601 119.953 38.5821 119.738 38.4246C119.648 38.3505 119.576 38.256 119.528 38.1488C119.481 38.0416 119.459 37.9247 119.466 37.8077C119.462 37.6572 119.503 37.5089 119.581 37.3805C119.669 37.2488 119.786 37.1394 119.924 37.0613C120.095 36.9626 120.28 36.8884 120.473 36.8408C120.714 36.7803 120.961 36.7457 121.21 36.7375Z" fill="#0A3F3C"/>
</svg>
